PathFileType	4	(X/Y/Z)	\\Move.snu.ac.kr\motion\Animal\091204_091205_Bird\091205_bird\Project 2\Capture day 2\Session 1\pigeon_007_new_after_delete_unlabel.trc
DataRate	CameraRate	NumFrames	NumMarkers	Units	OrigDataRate	OrigDataStartFrame	OrigNumFrames
240.0	240.0	12	14	mm	240.0	167	5319
Frame#	Time	14MarkersBird:Head			14MarkersBird:C_back			14MarkersBird:Spine			14MarkersBird:L-shoulder			14MarkersBird:L-elbow			14MarkersBird:L-wrist			14MarkersBird:L-hand			14MarkersBird:R-shoulder			14MarkersBird:R-elbow			14MarkersBird:R-Wrist			14MarkersBird:R-hand			14MarkersBird:C_Tail			14MarkersBird:L-Tale			14MarkersBird:R-Tale			
		X1	Y1	Z1	X2	Y2	Z2	X3	Y3	Z3	X4	Y4	Z4	X5	Y5	Z5	X6	Y6	Z6	X7	Y7	Z7	X8	Y8	Z8	X9	Y9	Z9	X10	Y10	Z10	X11	Y11	Z11	X12	Y12	Z12	X13	Y13	Z13	X14	Y14	Z14	

2721	11.333	-690.49243	888.12891	-1494.82068	-742.32440	881.15308	-1499.17395	-799.06628	877.54236	-1505.19812	-717.45532	875.80426	-1519.76123	-736.75409	903.15442	-1504.94971	-724.85144	937.74988	-1524.05017	-739.69940	961.86700	-1518.22900	-720.71033	880.34344	-1478.16455	-741.47058	903.57892	-1495.77002	-724.39215	937.60095	-1470.72058	-745.00897	972.65448	-1470.92883	-904.80121	808.32001	-1526.51721	-825.38666	837.18243	-1599.14087	-854.26813	837.50226	-1410.90747	
2722	11.337	-675.07416	885.53571	-1494.09229	-727.50690	878.95343	-1498.54138	-783.47815	875.19525	-1504.33093	-701.47937	873.68079	-1519.31860	-720.48987	900.71777	-1506.84753	-707.08459	934.35260	-1528.68958	-717.92590	960.36615	-1523.39624	-704.80676	877.77356	-1476.35352	-725.06348	902.55750	-1490.93628	-709.89362	934.48322	-1462.40112	-726.40338	971.93256	-1461.79443	-889.74786	806.90430	-1525.81982	-807.87146	836.30688	-1598.53381	-837.21802	834.96857	-1408.67065	
2723	11.342	-659.51740	882.87970	-1493.39539	-712.70032	876.78998	-1497.98315	-767.86584	872.99347	-1503.42688	-685.31665	871.35217	-1518.82703	-704.68829	897.97107	-1510.38013	-689.42889	928.97614	-1536.22534	-696.47119	956.52069	-1535.51465	-688.73712	875.03955	-1474.61243	-710.14966	900.93469	-1484.30090	-695.81982	928.68311	-1451.45093	-708.95581	966.35480	-1445.22449	-874.09485	804.75012	-1524.49182	-791.11572	835.05255	-1597.65210	-820.12524	832.18732	-1406.64746	
2724	11.346	-643.76813	880.38147	-1492.74805	-697.76910	874.65350	-1497.49609	-752.19336	870.97809	-1502.47693	-668.95361	868.73389	-1518.25635	-688.45697	895.05963	-1515.06262	-671.60449	921.41504	-1545.37012	-675.40527	948.94220	-1551.49316	-672.43243	872.08978	-1472.89172	-695.88293	898.30670	-1476.86340	-681.19379	920.09021	-1439.58167	-691.69507	955.45685	-1425.26990	-857.99207	802.08459	-1522.59607	-775.26611	833.24518	-1596.53955	-803.18884	829.52234	-1405.00134	
2725	11.350	-627.86707	878.14374	-1492.07617	-682.57758	872.53473	-1497.07666	-736.42468	869.19025	-1501.47229	-652.42841	865.88513	-1517.61792	-671.72925	891.41400	-1520.38037	-653.11792	911.47284	-1554.46143	-653.99017	936.76697	-1567.69885	-655.87714	868.88550	-1471.11682	-679.57794	894.02856	-1469.31885	-664.94843	908.92517	-1428.40393	-672.89948	939.31946	-1405.68933	-841.56232	799.21527	-1520.37219	-760.12665	830.95215	-1595.25623	-786.51569	827.08893	-1403.78101	
2726	11.354	-611.83600	876.09259	-1491.26245	-666.99005	870.42438	-1496.72131	-720.52399	867.67108	-1500.40430	-635.84473	862.97089	-1516.87915	-654.69055	886.50806	-1525.72131	-633.59064	899.14563	-1561.91101	-631.52515	920.33685	-1581.14648	-639.12964	865.53900	-1469.33057	-662.60669	888.47693	-1460.38757	-646.44757	895.62531	-1419.27954	-651.44672	918.71704	-1389.34790	-824.82684	796.39813	-1518.19434	-745.26666	828.41656	-1593.87610	-770.15338	824.65924	-1402.99890	
2727	11.358	-595.66406	874.09222	-1490.23816	-651.11517	868.33185	-1496.43701	-704.45514	866.46161	-1499.26416	-619.28442	860.19464	-1515.98840	-637.15698	880.46832	-1530.37048	-613.04315	884.84875	-1566.52808	-607.86676	900.67499	-1589.99390	-622.27142	862.34503	-1467.66248	-644.82159	881.97589	-1453.02551	-625.86060	880.70758	-1413.22131	-627.35602	894.96259	-1378.24536	-807.73431	793.75891	-1516.36182	-730.25616	825.84436	-1592.44995	-754.07477	821.96960	-1402.62866	
2728	11.363	-579.33002	872.15546	-1489.04749	-634.60901	867.14337	-1495.41223	-688.18219	865.60303	-1498.04309	-602.69055	857.77557	-1514.94800	-618.98999	873.73633	-1533.76880	-591.94965	869.50220	-1567.60608	-583.58069	878.97607	-1593.30713	-605.30090	859.65729	-1466.19104	-625.05658	874.05811	-1448.54431	-603.94208	864.98639	-1410.86401	-601.46234	869.70850	-1373.51416	-790.25989	791.34619	-1514.91418	-714.88336	823.26196	-1590.94763	-738.20660	819.06683	-1402.59131	
2729	11.367	-562.77496	870.33295	-1487.74341	-617.88910	866.77405	-1493.94714	-671.66925	865.13641	-1496.73218	-585.91711	855.89014	-1513.81323	-600.59784	866.72070	-1535.69604	-571.02002	854.38147	-1564.94470	-559.69019	856.68097	-1590.75696	-588.31604	857.56378	-1464.90564	-605.64941	866.58160	-1444.28967	-581.67139	849.63995	-1412.37158	-574.97742	844.87146	-1375.50854	-772.49756	789.22510	-1513.64331	-699.22150	820.58533	-1589.20947	-722.49158	816.26532	-1402.78381	
2730	11.371	-545.98877	868.63342	-1486.38745	-601.19360	866.28699	-1492.54370	-654.88025	865.10291	-1495.32263	-568.93909	854.55072	-1512.57935	-582.45837	859.94324	-1536.15161	-550.83185	840.91492	-1558.91980	-537.16840	835.65057	-1582.61279	-571.47699	855.90454	-1463.75134	-586.22662	859.36035	-1441.63940	-559.83014	836.08978	-1417.27893	-549.12366	822.49994	-1383.73169	-754.68231	787.51190	-1512.28516	-683.55280	817.78192	-1587.09534	-706.89166	813.85754	-1403.07617	
2731	11.375	-528.96606	866.98651	-1485.01660	-584.38110	866.02423	-1491.01404	-637.86365	865.45166	-1493.82520	-551.84888	853.64276	-1511.22412	-565.02325	853.85632	-1535.37817	-531.69482	830.34827	-1550.49414	-516.55640	818.02655	-1569.97192	-554.72974	854.55444	-1462.62537	-567.50159	852.97894	-1440.35413	-538.94006	825.67310	-1424.45276	-524.78766	804.57867	-1396.73206	-737.09534	786.30823	-1510.72461	-668.14728	815.00098	-1584.68298	-691.32825	811.91718	-1403.31616	
2732	11.379	-511.73956	865.31610	-1483.66248	-567.41962	865.85278	-1489.43799	-620.87311	865.55737	-1492.05737	-534.70270	853.02606	-1509.77832	-548.48181	848.87201	-1533.74243	-513.58746	823.57990	-1541.12366	-497.90695	805.59784	-1554.73193	-537.82996	853.55798	-1461.40820	-549.99176	847.83795	-1439.91016	-519.22009	819.34302	-1432.23840	-502.38260	792.56158	-1412.05396	-719.89801	785.64124	-1509.07788	-653.02271	812.48419	-1582.20935	-675.65997	810.35077	-1403.32983	
